# xmcd CD database file
#
# Track frame offsets:
#	150
#	26028
#	46951
#	66319
#	92013
#	119683
#	144192
#	160828
#	185062
#	211481
#	236643
#	259196
#	280023
#	305994
#
# Disc length: 4470 seconds
#
# Revision: 14
# Processed by: cddbd v1.5.2PL0 Copyright (c) Steve Scherf et al.
# Submitted via: CDex 1.70beta2
#
DISCID=d411740e
DTITLE=EXILE - EXILE BALLAD BEST
DYEAR=2008
DGENRE=J-Pop
TTITLE0=Ti Amo
TTITLE1=Lovers Again
TTITLE2=Your eyes only ～曖昧なぼくの輪郭～
TTITLE3=song for you
TTITLE4=We Will ～あの場所で～ -Orchestra Version-
TTITLE5=運命のヒト -Orchestra Version-
TTITLE6=HOLY NIGHT -A Cappella Version-
TTITLE7=LAST CHRISTMAS
TTITLE8=ただ…逢いたくて
TTITLE9=僕へ
TTITLE10=変わらないモノ
TTITLE11=道
TTITLE12=One love -Piano Version-
TTITLE13=Love, Dream and Happiness
EXTD=YEAR: 2008
EXTT0=
EXTT1=
EXTT2=
EXTT3=
EXTT4=
EXTT5=
EXTT6=
EXTT7=
EXTT8=
EXTT9=
EXTT10=
EXTT11=
EXTT12=
EXTT13=
PLAYORDER=
